<svg width="135" height="126" viewBox="0 0 135 126" fill="none" xmlns="http://www.w3.org/2000/svg">
<path d="M68 0.5C81.7448 0.5 94.1636 3.34234 103.128 7.91406C112.119 12.4997 117.5 18.7446 117.5 25.5C117.5 32.2554 112.119 38.5003 103.128 43.0859C94.1636 47.6577 81.7448 50.5 68 50.5C54.2552 50.5 41.8364 47.6577 32.8721 43.0859C23.8806 38.5003 18.5 32.2554 18.5 25.5C18.5 18.7446 23.8806 12.4997 32.8721 7.91406C41.8364 3.34234 54.2552 0.5 68 0.5Z" fill="black" stroke="#0C98E9"/>
<path d="M68 10.5C78.1546 10.5 87.3231 12.6147 93.9346 16.0098C100.572 19.4183 104.5 24.0377 104.5 29C104.5 33.9623 100.572 38.5817 93.9346 41.9902C87.3231 45.3853 78.1546 47.5 68 47.5C57.8454 47.5 48.6769 45.3853 42.0654 41.9902C35.4277 38.5817 31.5 33.9623 31.5 29C31.5 24.0377 35.4277 19.4183 42.0654 16.0098C48.6769 12.6147 57.8454 10.5 68 10.5Z" fill="#0C98E9" stroke="#0C98E9"/>
<rect x="0.5" y="26.5" width="134" height="99" fill="black" stroke="#0C98E9"/>
<path d="M110.436 125.5H25.5645L68 51.999L110.436 125.5Z" fill="black" stroke="#0C98E9"/>
</svg>
